<svg class="logo logo-datatrans" xmlns="http://www.w3.org/2000/svg" xmlns:xlink="http://www.w3.org/1999/xlink" x="0px" y="0px"
	 viewBox="0 0 283.5 68.9" style="enable-background:new 0 0 283.5 68.9;" xml:space="preserve">
<g>
	<path style="fill:#8BBAD3;" d="M272,68.6h6.7v-1.5h-5v-3.9h4.5v-1.5h-4.5v-3.5h5v-1.5H272V68.6z M269.3,57
		c-0.9-0.4-1.8-0.5-2.7-0.5c-3.6,0-6.3,2.4-6.3,6.1c0,3.8,2.5,6.2,6.3,6.2c0.7,0,1.8-0.1,2.7-0.4l-0.1-1.7c-0.6,0.4-1.7,0.6-2.6,0.6
		c-2.5,0-4.5-1.9-4.5-4.7c0-2.7,1.8-4.7,4.6-4.7c0.9,0,1.7,0.2,2.5,0.7L269.3,57z M247.9,68.6h1.7v-9.8l0,0l5.4,9.8h2.2V56.7h-1.7
		v9.6l0,0l-5.3-9.6h-2.3L247.9,68.6L247.9,68.6z M237.9,68.6h6.7v-1.5h-5v-3.9h4.5v-1.5h-4.5v-3.5h5v-1.5h-6.7V68.6z M230.1,68.6
		h1.7V58.2h3.7v-1.5h-9.1v1.5h3.7L230.1,68.6L230.1,68.6z M217.7,68.6h6.7v-1.5h-5v-3.9h4.5v-1.5h-4.5v-3.5h5v-1.5h-6.7V68.6z
		 M207.4,68.6h1.7v-4.8h1.7c2.2,0,4.2-0.9,4.2-3.6c0-2.7-2-3.6-4.5-3.6h-3.1L207.4,68.6L207.4,68.6z M209.1,58.2h1.5
		c1.1,0,2.6,0.5,2.6,2.1s-1.3,2.1-2.4,2.1h-1.7L209.1,58.2L209.1,58.2z M190.8,68.6h1.7V58.3l0,0l4,10.3h1.7l4-10.3l0,0v10.3h1.7
		V56.7H201l-3.7,9.9l-3.7-9.9h-2.8V68.6z M176.2,62.7c0,3.6,2.1,6.2,5.7,6.2c3.6,0,5.7-2.5,5.7-6.2c0-3.5-2.1-6.2-5.7-6.2
		S176.2,59.1,176.2,62.7 M178,62.7c0-2.4,1.3-4.7,3.9-4.7c2.6,0,3.9,2.2,3.9,4.7c0,2.4-1.2,4.7-3.9,4.7
		C179.2,67.3,178,65.1,178,62.7 M174.5,57c-0.9-0.4-1.8-0.5-2.7-0.5c-3.6,0-6.3,2.4-6.3,6.1c0,3.8,2.5,6.2,6.3,6.2
		c0.7,0,1.8-0.1,2.7-0.4l-0.1-1.7c-0.6,0.4-1.7,0.6-2.6,0.6c-2.5,0-4.5-1.9-4.5-4.7c0-2.7,1.8-4.7,4.6-4.7c0.9,0,1.7,0.2,2.5,0.7
		L174.5,57z M152.5,68.6h1.7V58.2h3.7v-1.5h-9.1v1.5h3.7L152.5,68.6L152.5,68.6z M137.2,68.6h1.7v-9.8l0,0l5.4,9.8h2.2V56.7h-1.7
		v9.6l0,0l-5.3-9.6h-2.3L137.2,68.6L137.2,68.6z M127.2,68.6h6.7v-1.5h-5v-3.9h4.5v-1.5h-4.5v-3.5h5v-1.5h-6.7V68.6z M110.3,68.6
		h1.7V58.3l0,0l4,10.3h1.7l4-10.3l0,0v10.3h1.7V56.7h-2.8l-3.7,9.9l-3.7-9.9h-2.8v11.9H110.3z M101.7,68.6h1.7v-5l4.7-6.9h-2
		l-3.5,5.4L99,56.7h-2l4.7,6.9V68.6z M93.7,64.2H89l2.4-5.9L93.7,64.2z M85.4,68.6h1.8l1.2-3h5.9l1.2,3h1.9l-5-11.9h-1.8L85.4,68.6z
		 M77.1,68.6h1.7v-4.8h1.7c2.2,0,4.2-0.9,4.2-3.6c0-2.7-2-3.6-4.5-3.6h-3.1C77.1,56.6,77.1,68.6,77.1,68.6z M78.9,58.2h1.5
		c1.1,0,2.6,0.5,2.6,2.1s-1.3,2.1-2.4,2.1h-1.7V58.2z M69.1,64.7h4.4v-1.3h-4.4V64.7z M59,68.6h6.7v-1.5h-5v-3.9h4.5v-1.5h-4.5v-3.5
		h5v-1.5H59V68.6z M48.7,56.9c-0.8-0.3-1.8-0.4-2.5-0.4c-2.2,0-3.8,1.1-3.8,3.2c0,3.7,5.1,3,5.1,5.6c0,1.4-1.4,2-2.3,2
		c-0.9,0-1.9-0.3-2.5-0.6l-0.2,1.6c0.8,0.3,1.6,0.5,2.4,0.5c2.4,0,4.4-1,4.4-3.6c0-3.9-5.1-3.4-5.1-5.7c0-1.2,1.1-1.6,2.1-1.6
		c0.9,0,1.4,0.2,2.2,0.5L48.7,56.9z M39.6,56.9c-0.8-0.3-1.8-0.4-2.5-0.4c-2.2,0-3.8,1.1-3.8,3.2c0,3.7,5.1,3,5.1,5.6
		c0,1.4-1.4,2-2.3,2c-0.9,0-1.9-0.3-2.5-0.6l-0.2,1.6c0.8,0.3,1.6,0.5,2.4,0.5c2.4,0,4.4-1,4.4-3.6c0-3.9-5.1-3.4-5.1-5.7
		c0-1.2,1.1-1.6,2.1-1.6c0.9,0,1.4,0.2,2.2,0.5L39.6,56.9z M28.6,68.6h1.7V56.7h-1.7V68.6z M13,68.6h2.3l2.6-10.4l0,0l2.6,10.4h2.2
		l3.7-11.9h-1.8l-2.9,10.2l0,0l-2.6-10.2h-2.4l-2.5,10.2l0,0l-2.9-10.2H9.4L13,68.6z M7.2,56.9c-0.8-0.3-1.8-0.4-2.5-0.4
		c-2.2,0-3.8,1.1-3.8,3.2c0,3.7,5.1,3,5.1,5.6c0,1.4-1.4,2-2.3,2S1.8,67,1.2,66.7L1,68.4c0.8,0.3,1.6,0.5,2.4,0.5
		c2.4,0,4.4-1,4.4-3.6c0-3.9-5.1-3.4-5.1-5.7c0-1.2,1.1-1.6,2.1-1.6c0.9,0,1.4,0.2,2.2,0.5L7.2,56.9z"/>
	<path style="fill:#006EAB;" d="M36,0h-7.4l-3,14.7h-0.1c-1.7-3.4-5.4-4.5-9.1-4.5c-4.8,0-13.7,2.5-16.1,13.9
		C-1.1,31.3,2,37.6,11.1,37.6c3.9,0,8.1-1.2,10.9-4.5h0.1c-0.2,1.2-0.4,2.3-0.5,3.5h7.1c0.2-1.4,0.6-3.9,1-6L36,0z M23.7,23.9
		c-1,4.8-4.9,8.8-9.6,8.8s-7-4-6-8.8s4.9-8.8,9.6-8.8C22.4,15.1,24.7,19.1,23.7,23.9"/>
	<path style="fill:#006EAB;" d="M67.1,21.2c1.8-8.9-4.9-11-11.8-11c-6.3,0-13.4,1.6-15.5,8.1h7.7c0.7-2,3.1-3.6,6.7-3.6
		c3.7,0,6.5,1.2,5.6,5.7h-5.9c-9.4,0-17,1.4-18.6,9.3c-0.7,3.7,1.4,7.8,10,7.8c4.7,0,8.8-1.3,12.5-4.5c-0.2,1.2-0.4,2.3-0.5,3.5h6.8
		c0.2-1.7,0.4-3.1,0.8-4.8L67.1,21.2z M58.9,25c-1.3,6.1-7.3,8.3-11,8.3c-4.2,0-5.1-2.3-4.8-4.1c0.6-3,4-4.3,9.6-4.3h6.2V25z"/>
	<path style="fill:#006EAB;" d="M89.2,3.4l-1.6,7.8h8.7l-1,4.9h-8.7L84.2,28c-0.6,2.8,0.2,4.3,3.1,4.3c1.6,0,3.6-0.2,4.7-0.5l-1,4.9
		c-2.1,0.3-4.3,0.5-6.4,0.5c-7.4,0-9.1-2.5-7.9-8.5L79.2,16h-6.8l1-4.9h6.8l1.1-5.4L89.2,3.4z"/>
	<path style="fill:#006EAB;" d="M128,21.2c1.8-8.9-4.9-11-11.8-11c-6.3,0-13.4,1.6-15.5,8.1h7.7c0.7-2,3.1-3.6,6.7-3.6
		c3.7,0,6.5,1.2,5.6,5.7h-5.9c-9.4,0-17,1.4-18.6,9.3c-0.7,3.7,1.4,7.8,10,7.8c4.7,0,8.8-1.3,12.5-4.5c-0.2,1.2-0.4,2.3-0.5,3.5h6.8
		c0.2-1.7,0.4-3.1,0.8-4.8L128,21.2z M119.8,25c-1.3,6.1-7.3,8.3-11,8.3c-4.2,0-5.1-2.3-4.8-4.1c0.6-3,4-4.3,9.7-4.3h6.1V25z"/>
	<path style="fill:#8BBAD3;" d="M150,3.4l-1.6,7.8h8.7l-1,4.9h-8.7L145,27.9c-0.6,2.8,0.2,4.3,3.1,4.3c1.6,0,3.6-0.2,4.7-0.5l-1,4.9
		c-2.1,0.3-4.3,0.5-6.4,0.5c-7.4,0-9.2-2.5-7.9-8.5L140,16h-6.8l1-4.9h6.8l1.1-5.4L150,3.4z"/>
	<path style="fill:#8BBAD3;" d="M161.6,17.6c0.5-2.4,0.9-4.7,1.1-6.4h7.1c-0.2,1.6-0.4,3.1-0.8,4.7h0.1c1.1-1.7,3.4-5.2,9.2-5.2
		c1.6,0,3,0.2,4.7,0.5l-1.2,5.8c-0.4-0.1-0.9-0.2-1.5-0.2c-0.5-0.1-1.2-0.1-1.9-0.1c-6,0-9.8,2.7-11.2,9.7l-2.1,10.3h-7.4
		L161.6,17.6z"/>
	<path style="fill:#8BBAD3;" d="M213.3,21.2c1.8-8.9-4.9-11-11.8-11c-6.3,0-13.4,1.6-15.5,8.1h7.7c0.7-2,3.1-3.6,6.7-3.6
		c3.7,0,6.5,1.2,5.6,5.7h-5.9c-9.4,0-17,1.4-18.6,9.3c-0.7,3.7,1.4,7.8,10,7.8c4.7,0,8.8-1.3,12.5-4.5c-0.2,1.2-0.4,2.3-0.5,3.5h6.8
		c0.2-1.7,0.4-3.1,0.8-4.8L213.3,21.2z M205.1,25c-1.3,6.1-7.3,8.3-11,8.3c-4.2,0-5.1-2.3-4.8-4.1c0.6-3,4-4.3,9.6-4.3h6.2V25z"/>
	<path style="fill:#8BBAD3;" d="M221.8,17.2c0.5-2.2,0.8-4.4,1-6h7.1c-0.2,1.4-0.4,2.8-0.7,4.2h0.1c3.2-3.6,6.9-5.2,11.4-5.2
		c4.4,0,10.7,2.5,9,10.8l-3.2,15.7h-7.4l2.8-13.5c1.3-6.3-1.2-7.8-4.8-7.8c-3.9,0-8.2,2.8-9.4,9l-2.5,12.3h-7.4L221.8,17.2z"/>
	<path style="fill:#8BBAD3;" d="M262.2,28.8c-0.1,3.2,1.4,4.2,5.1,4.2c4.3,0,6.4-1.3,6.7-3.1c0.3-1.3-0.4-2.1-3.1-2.5l-5.6-0.8
		c-8.2-1.2-8.6-5-8-8c0.8-3.8,4.6-8.4,15.1-8.4c5.9,0,12.2,1.8,10.8,8.5h-7.7c0.4-2.9-1.4-4-5.2-4c-2.8,0-4.8,1.1-5.1,2.7
		c-0.3,1.4,0.1,2.2,3.7,2.8l6.9,1.2c5.2,0.9,6.8,3.8,6,7.6c-0.9,4.6-5,8.6-14.8,8.6s-13.6-1.8-12.8-8.8
		C254.2,28.8,262.2,28.8,262.2,28.8z"/>
</g>
</svg>
