<svg class="logo logo-globalpay" xmlns="http://www.w3.org/2000/svg" xmlns:xlink="http://www.w3.org/1999/xlink" x="0px" y="0px"
	 viewBox="0 0 88.89 100" style="enable-background:new 0 0 88.89 100;" xml:space="preserve">
<circle style="fill:#FBD10D;" cx="51.169" cy="67.196" r="3.977"/>
<path style="fill:#FBD10D;" d="M34.234,33.726H15.336c-5.987,0-10.865-4.262-11.01-10.215c-0.127-6.042,4.702-10.922,10.411-11.232
	l4.342-4.342c-1.226,0-2.467,0-3.742,0c-8.275,0-15.322,5.703-15.322,15.305H0c0.018,61.075,0.057,61.232,0.057,61.232
	C0.057,92.601,7.339,100,15.336,100h66.435c3.926,0,7.119-3.194,7.119-7.119V82.825c0-3.716-3.023-6.739-6.739-6.739H50.837
	c-4.937,0-8.953-4.016-8.953-8.953s4.016-8.953,8.953-8.953h31.314c3.716,0,6.739-3.023,6.739-6.739V40.846
	c0-3.926-3.194-7.119-7.119-7.119H34.234"/>
<path style="fill:#FFFFFF;" d="M77.238,25.357c0,0-2.806,0-7.217,0.001v-3.561c0-2.318-1.885-4.204-4.202-4.204H30.943
	c-2.318,0-4.204,1.886-4.204,4.204v3.563C20.408,25.36,15.033,25.36,15.03,25.36c-1.006-0.017-1.821-0.838-1.821-1.849
	c0-1.021,0.831-1.851,1.852-1.851c0,0,1.88-0.009,7.575-0.019v-0.922c0-3.986,3.243-7.228,7.229-7.228h22.149L40.642,2.118
	c-2.824-2.824-7.404-2.824-10.228,0L14.897,17.635c-3.035,0.1-5.72,2.638-5.72,5.876c0,3.245,2.64,5.885,5.885,5.885
	c0.022,0,0.042-0.006,0.064-0.006h62.113c1.114,0,2.016-0.903,2.016-2.016S78.352,25.357,77.238,25.357z"/>
<path style="fill:#FBD10D;" d="M81.597,8.159c-0.744-0.212-6.64-0.228-29.709-0.22c0,0,2.943,2.833,4.636,4.323h23.378
	c1.093,0,1.981,0.888,1.981,1.981c0,1.081-0.872,1.959-1.95,1.976c-0.002,0-4.96-0.003-7.004-0.008
	c1.585,1.585,1.863,3.183,1.863,4.323c0.795,0,4.294,0,5.109,0c3.47,0,6.293-2.822,6.293-6.291
	C86.195,11.179,84.021,8.847,81.597,8.159z"/>
</svg>
