<svg class="logo logo-globalpay" xmlns="http://www.w3.org/2000/svg" xmlns:xlink="http://www.w3.org/1999/xlink" x="0px" y="0px"
	 viewBox="0 0 708.661 340.157" style="enable-background:new 0 0 708.661 340.157;" xml:space="preserve">
<g id="BG">
	<rect style="fill:#2B2A26;" width="708.661" height="340.157"/>
</g>
<g id="graphics">
	<circle style="fill:#FBD10D;" cx="165.803" cy="201.983" r="7.378"/>
	<path style="fill:#FBD10D;" d="M134.382,139.886H99.319c-11.107,0-20.158-7.908-20.428-18.953
		c-0.236-11.21,8.724-20.265,19.315-20.839l8.056-8.056c-2.274,0-4.577,0-6.943,0c-15.354,0-28.428,10.581-28.428,28.396h-0.025
		c0.033,113.316,0.105,113.607,0.105,113.607c0,15.076,13.512,28.805,28.348,28.805h123.26c7.283,0,13.209-5.926,13.209-13.209
		v-18.656c0-6.895-5.609-12.504-12.504-12.504h-58.098c-9.16,0-16.612-7.451-16.612-16.611s7.452-16.611,16.612-16.611h58.098
		c6.895,0,12.504-5.609,12.504-12.504v-19.656c0-7.283-5.926-13.209-13.209-13.209H134.382"/>
	<path style="fill:#FFFFFF;" d="M214.169,124.357c0,0-5.207,0-13.391,0.001v-6.607c0-4.3-3.498-7.799-7.797-7.799h-64.706
		c-4.301,0-7.8,3.499-7.8,7.799v6.611c-11.746,0.001-21.719,0.001-21.724,0.001c-1.867-0.032-3.378-1.556-3.378-3.431
		c0-1.894,1.542-3.435,3.436-3.435c0,0,3.487-0.017,14.055-0.036v-1.71c0-7.395,6.017-13.411,13.412-13.411h41.095l-21.1-21.1
		c-5.239-5.239-13.737-5.239-18.976,0l-28.79,28.79c-5.63,0.186-10.613,4.894-10.613,10.902c0,6.021,4.898,10.919,10.918,10.919
		c0.041,0,0.079-0.011,0.119-0.012h115.241c2.066,0,3.74-1.675,3.74-3.741C217.91,126.033,216.236,124.357,214.169,124.357z"/>
	<path style="fill:#FBD10D;" d="M222.257,92.449c-1.381-0.393-12.32-0.423-55.121-0.408c0,0,5.461,5.257,8.602,8.021h43.375
		c2.027,0,3.676,1.648,3.676,3.675c0,2.006-1.617,3.635-3.617,3.667c-0.004,0-9.203-0.006-12.994-0.016
		c2.941,2.941,3.457,5.906,3.457,8.021c1.475,0,7.967,0,9.478,0c6.438,0,11.676-5.236,11.676-11.673
		C230.789,98.053,226.753,93.726,222.257,92.449z"/>
	<g>
		<path style="fill:#FFFFFF;" d="M327.228,155.961l-7.756,8.467c-2.058-2.216-4.986-4.431-10.13-4.431
			c-7.281,0-13.453,4.036-13.453,17.173c0,13.691,4.432,19.627,13.691,19.627c1.662,0,4.115-0.317,5.223-0.792v-18.756h12.108
			v24.453c-4.036,2.77-9.575,4.907-19.863,4.907c-15.749,0-23.583-9.497-23.583-28.014c0-20.022,11.633-29.044,26.353-29.044
			C320.738,149.55,325.724,154.22,327.228,155.961z"/>
		<path style="fill:#FFFFFF;" d="M349.221,145.831v45.9c0,3.323,1.504,4.431,3.72,4.431c0.87,0,1.266-0.079,1.662-0.158v9.418
			c-1.425,0.553-3.087,1.107-5.698,1.107c-7.281,0-11.633-4.273-11.633-11.713v-48.985H349.221z"/>
		<path style="fill:#FFFFFF;" d="M359.744,183.659c0-13.77,5.777-23.346,20.576-23.346c15.432,0,20.259,9.179,20.259,23.029
			c0,13.769-5.856,23.346-20.655,23.346C364.571,206.688,359.744,197.508,359.744,183.659z M380.32,197.349
			c6.094,0,7.993-4.431,7.993-13.532c0-9.26-2.295-14.165-8.468-14.165c-5.46,0-7.835,4.431-7.835,13.532
			C372.01,192.443,374.305,197.349,380.32,197.349z"/>
		<path style="fill:#FFFFFF;" d="M408.961,145.831h11.792v17.252h0.317c1.741-1.188,4.986-2.454,8.705-2.454
			c10.13,0,17.648,5.541,17.648,22.001c0,13.611-7.993,23.978-22.871,23.978c-7.359,0-11.792-1.108-15.59-2.849V145.831z
			 M435.552,183.58c0-9.972-3.482-13.137-8.625-13.137c-2.77,0-4.907,1.107-6.015,2.373v23.663c1.346,0.475,2.849,0.633,4.511,0.633
			C431.753,197.112,435.552,193.076,435.552,183.58z"/>
		<path style="fill:#FFFFFF;" d="M487.936,175.112v17.886c0,2.532,0.949,3.64,3.087,3.64h1.266v8.231
			c-1.9,1.187-3.956,1.504-5.936,1.504c-4.273,0-6.726-2.058-8.072-4.827h-0.317c-1.661,2.216-4.985,4.985-11.396,4.985
			c-8.705,0-13.216-5.935-13.216-12.345c0-10.287,9.259-15.036,23.345-14.324v-3.482c0-4.985-2.77-6.489-6.409-6.489
			c-4.274,0-6.569,2.453-7.677,5.065l-8.468-6.251c1.741-2.454,6.173-8.389,16.065-8.389
			C481.605,160.313,487.936,164.27,487.936,175.112z M476.698,187.932c-7.835-0.554-11.712,1.266-11.712,5.143
			c0,2.532,1.741,4.353,4.828,4.353c2.928,0,5.539-1.346,6.884-3.165V187.932z"/>
		<path style="fill:#FFFFFF;" d="M511.039,145.831v45.9c0,3.323,1.504,4.431,3.72,4.431c0.87,0,1.266-0.079,1.661-0.158v9.418
			c-1.424,0.553-3.087,1.107-5.697,1.107c-7.281,0-11.634-4.273-11.634-11.713v-48.985H511.039z"/>
		<path style="fill:#FFFFFF;" d="M542.691,206.054c-2.612,0-4.748-0.237-6.885-0.712v15.827h-11.87v-60.064h8.784l2.532,3.799h0.317
			c1.661-1.979,5.065-4.59,10.684-4.59c9.813,0,16.54,7.36,16.54,21.288C562.793,198.062,553.454,206.054,542.691,206.054z
			 M541.267,196.4c5.777,0,9.338-3.324,9.338-13.769c0-8.863-3.72-12.662-8.389-12.662c-2.691,0-5.144,1.266-6.568,3.402v21.683
			C537.389,196.083,540.08,196.4,541.267,196.4z"/>
		<path style="fill:#FFFFFF;" d="M603.304,175.112v17.886c0,2.532,0.949,3.64,3.085,3.64h1.266v8.231
			c-1.899,1.187-3.956,1.504-5.935,1.504c-4.273,0-6.727-2.058-8.072-4.827h-0.317c-1.661,2.216-4.985,4.985-11.396,4.985
			c-8.706,0-13.216-5.935-13.216-12.345c0-10.287,9.26-15.036,23.346-14.324v-3.482c0-4.985-2.77-6.489-6.41-6.489
			c-4.273,0-6.568,2.453-7.676,5.065l-8.468-6.251c1.741-2.454,6.173-8.389,16.065-8.389
			C596.973,160.313,603.304,164.27,603.304,175.112z M592.066,187.932c-7.834-0.554-11.713,1.266-11.713,5.143
			c0,2.532,1.741,4.353,4.827,4.353c2.929,0,5.539-1.346,6.885-3.165V187.932z"/>
		<path style="fill:#FFFFFF;" d="M614.22,211.515c1.188,0.633,2.849,1.107,4.827,1.107c4.273,0,6.806-2.453,7.202-6.964
			l-16.777-44.554h13.374l4.986,15.194c1.661,5.065,3.402,11.791,3.956,15.59h0.317c0.633-4.036,1.661-9.575,3.324-15.59
			l4.194-15.194h12.345l-15.035,46.928c-2.532,7.835-6.965,14.64-17.411,14.64c-3.165,0-6.172-0.79-7.28-1.345L614.22,211.515z"/>
	</g>
</g>
</svg>
