<svg class="logo logo-postfinance" xmlns="http://www.w3.org/2000/svg" xmlns:xlink="http://www.w3.org/1999/xlink" x="0px" y="0px"
	 viewBox="0 0 2257.463 867.292" style="enable-background:new 0 0 2257.463 867.292;" xml:space="preserve">
<g>
	<path id="path22" style="fill:#FCCC12;" d="M0,867.293h2257.462V0H0V867.293z"/>
	<path id="path24" style="fill:#FFFFFF;" d="M1743.375,567.214l18.162-86H279.336l-18.179,86H1743.375"/>
	<path id="path26" style="fill:#EB1B24;" d="M1921.9,364.001c0,0,19.875-91.112,20.15-91.966h-126.3
		c0,0.576-26.114,120.913-26.114,121.484c0.275,0,32.364,0,32.364,0c0.275,0,19.864-90.83,19.864-90.83h61.299
		c0,0-19.299,91.109-19.861,91.685c0.562,0,93.375,0,93.375,0l-12.201,56.193c0,0-92.525,0-92.824,0
		c0,0.57-18.725,85.716-18.725,85.716s-69.539,0-70.101,0c0,0.279-6.25,30.65-6.524,30.934H1879.6c0-0.284,18.463-86,18.463-86
		s92.239,0,92.812,0c0-0.285,24.412-116.651,24.412-117.214H1921.9"/>
	<path id="path28" style="fill:#231F20;" d="M1693.35,390.969c13.338,0,22.426,9.078,22.426,24.121c0,2.549-0.287,4.82-0.562,7.374
		h-57.625C1663.551,403.455,1676.312,390.969,1693.35,390.969z M1722.014,503.932l7.386-33.779
		c-12.489,4.247-24.699,7.65-40.301,7.65c-18.174,0-34.062-6.234-34.913-28.094h93.663c3.4-11.076,5.389-22.135,5.389-32.349
		c0-31.226-18.162-56.777-57.051-56.777c-50.525,0-81.174,41.455-81.174,87.147c0,39.16,26.111,62.159,66.699,62.159
		C1698.176,509.89,1711.225,507.326,1722.014,503.932L1722.014,503.932L1722.014,503.932z M1567.9,475.255
		c-18.451,0-30.938-7.944-30.938-30.931c0-26.962,17.025-49.39,44-49.39c8.511,0,18.162,2.554,27.812,6.25l6.812-32.357
		c-11.076-3.97-24.139-6.812-37.188-6.812c-44.562,0-82.6,33.204-82.6,84.303c0,42.002,25.836,61.861,63.011,61.861
		c12.489,0,22.989-2.266,30.663-5.383l7.375-33.216C1588.338,472.703,1578.963,475.255,1567.9,475.255L1567.9,475.255z
		 M1371.777,505.629l15.61-71.813c6.24-28.946,20.441-38.882,35.195-38.882c19.02,0,21.291,14.2,17.594,30.37l-17.031,80.324h40.594
		l17.875-82.311c8.799-41.152-10.213-62.734-40.011-62.734c-16.471,0-32.358,6.533-45.986,21.01l3.685-16.737h-37.744
		l-30.371,140.772h40.591V505.629z M1225.895,465.04c0-14.184,12.484-22.142,33.198-22.142c3.985,0,12.767,0.292,20.726,1.426
		l-1.709,7.949c-4.833,16.732-18.441,28.101-34.614,28.101C1231.85,480.375,1225.895,474.695,1225.895,465.04L1225.895,465.04
		L1225.895,465.04z M1265.065,361.438c-18.736,0-37.754,4.264-43.996,6.25l-6.81,32.643c9.069-2.549,26.954-7.384,42.855-7.384
		c21.281,0,28.948,6.529,28.948,17.603c0,1.979,0,4.259-0.562,6.519l-0.576,2.842c-10.215-1.133-19.858-1.977-24.414-1.977
		c-40.293,0-72.64,15.6-72.64,52.505c0,24.121,18.725,38.6,43.129,38.6c17.319,0,32.08-6.812,41.725-18.166l-3.125,14.758h36.045
		l17.601-80.601c1.416-5.973,1.979-12.207,1.979-18.165C1325.221,382.727,1311.89,361.438,1265.065,361.438L1265.065,361.438
		L1265.065,361.438z M1068.369,505.629l15.606-71.813c6.25-28.946,20.429-38.882,35.205-38.882c19.019,0,21.283,14.2,17.603,30.37
		l-17.041,80.324h40.586l17.871-82.311c8.802-41.152-10.205-62.734-40-62.734c-16.486,0-32.38,6.533-45.996,21.01l3.685-16.737
		h-37.744l-30.371,140.772h40.596V505.629z M995.713,325.965c-0.864,12.768,8.511,22.705,20.996,22.705
		c13.906,0,23.843-9.938,24.682-22.705c0.86-12.769-8.505-22.706-20.996-22.706C1006.494,303.259,996.557,313.196,995.713,325.965
		L995.713,325.965z M990.025,364.856l-30.366,140.772h40.307l30.371-140.772H990.025z M875.351,505.629l15.894-73.511h61.319
		l7.387-36.045h-61.035l9.375-45.131h64.429l7.944-36.051h-106.43l-40.307,190.739L875.351,505.629L875.351,505.629z
		 M835.338,395.789l6.533-30.933h-43.418l8.505-39.17l-42.295,9.36l-26.396,120.339c-7.367,34.07,11.352,52.792,45.41,52.792
		c7.11,0,19.019-1.412,27.545-4.244l6.811-30.948c-6.811,1.709-15.338,3.409-22.705,3.409c-11.651,0-19.879-3.971-17.031-18.17
		l13.344-62.435h43.698V395.789z M681.504,464.188c0,11.361-13.901,13.34-25.538,13.34c-14.765,0-31.22-3.965-40.009-6.812
		l-6.826,31.789c12.778,3.125,28.955,5.674,44.278,5.674c36.323,0,65.854-13.619,65.854-47.677
		c0-43.994-52.793-36.326-52.793-55.906c0-8.804,8.515-11.929,21.845-11.929c12.769,0,30.67,5.117,36.621,6.811l6.811-32.065
		c-12.201-3.409-26.679-5.396-39.741-5.396c-39.443,0-63.281,17.602-63.281,46.837C628.725,451.696,681.504,444.607,681.504,464.188
		L681.504,464.188L681.504,464.188z M528.809,509.89c44.565,0,74.649-32.364,81.46-74.649c7.1-42.295-16.455-74.658-61.025-74.658
		c-44.556,0-74.644,32.362-81.456,74.658C460.694,477.526,484.253,509.89,528.809,509.89L528.809,509.89z M532.51,477.25
		c-16.186,0-28.955-12.775-23.004-42.007c5.958-29.232,20.156-42.001,36.334-42.001c16.181,0,28.955,13.046,22.705,42.001
		C562.583,464.188,548.681,477.25,532.51,477.25L532.51,477.25z M361.353,447.439h17.886c57.05,0,88.842-28.09,88.842-74.926
		c0-34.912-24.712-57.622-66.997-57.622h-52.777l-40.307,190.739h40.87L361.353,447.439L361.353,447.439z M368.448,412.528
		l13.34-62.72h17.031c18.735,0,27.808,7.666,27.808,25.546c0,22.989-14.467,37.174-41.138,37.174L368.448,412.528"/>
</g>
</svg>
